<svg width="48" height="47" viewBox="0 0 48 47" fill="none" xmlns="http://www.w3.org/2000/svg">
<rect x="0.894043" width="46.8312" height="47" rx="10" fill="#E6F9E6"/>
<path d="M17.3479 32V15.2727H24.0453C25.2759 15.2727 26.3023 15.4551 27.1245 15.82C27.9467 16.1848 28.5647 16.6912 28.9786 17.3391C29.3924 17.9817 29.5993 18.7222 29.5993 19.5607C29.5993 20.2141 29.4686 20.7886 29.2073 21.2841C28.9459 21.7741 28.5865 22.1771 28.1291 22.4929C27.6772 22.8033 27.1599 23.0238 26.5773 23.1545V23.3178C27.2144 23.3451 27.8106 23.5247 28.366 23.8569C28.9268 24.189 29.3815 24.6546 29.73 25.2536C30.0785 25.8471 30.2527 26.5549 30.2527 27.3771C30.2527 28.2647 30.0322 29.0569 29.5911 29.7539C29.1555 30.4454 28.5103 30.9927 27.6554 31.3956C26.8005 31.7985 25.7469 32 24.4945 32H17.3479ZM20.8845 29.1087H23.7676C24.7532 29.1087 25.4719 28.9208 25.9239 28.5451C26.3758 28.1639 26.6018 27.6576 26.6018 27.0259C26.6018 26.5631 26.4902 26.1547 26.2669 25.8008C26.0437 25.4469 25.7251 25.1692 25.3113 24.9677C24.9029 24.7662 24.4156 24.6655 23.8493 24.6655H20.8845V29.1087ZM20.8845 22.2724H23.5063C23.9909 22.2724 24.421 22.188 24.7967 22.0192C25.1779 21.8449 25.4774 21.5999 25.6952 21.2841C25.9184 20.9683 26.0301 20.5898 26.0301 20.1488C26.0301 19.5444 25.815 19.0571 25.3848 18.6868C24.9601 18.3165 24.3557 18.1314 23.5716 18.1314H20.8845V22.2724Z" fill="#5DBD6D"/>
</svg>
