<svg width="47" height="47" viewBox="0 0 47 47" fill="none" xmlns="http://www.w3.org/2000/svg">
<rect x="0.0751953" width="46.8312" height="47" rx="10" fill="#FAE3E8"/>
<path d="M11.529 32V15.2727H22.6043V18.1886H15.0656V22.1744H21.8692V25.0902H15.0656V32H11.529ZM29.7142 32.245C28.4237 32.245 27.3129 31.9837 26.3818 31.4609C25.4562 30.9328 24.7429 30.1868 24.2419 29.223C23.741 28.2538 23.4905 27.1076 23.4905 25.7844C23.4905 24.494 23.741 23.3614 24.2419 22.3867C24.7429 21.4121 25.448 20.6525 26.3573 20.108C27.2721 19.5634 28.3448 19.2912 29.5754 19.2912C30.403 19.2912 31.1735 19.4246 31.8868 19.6914C32.6056 19.9528 33.2317 20.3475 33.7654 20.8757C34.3044 21.4039 34.7237 22.0682 35.0232 22.8686C35.3227 23.6636 35.4724 24.5947 35.4724 25.6619V26.6175H24.879V24.4613H32.1972C32.1972 23.9603 32.0883 23.5166 31.8705 23.13C31.6527 22.7434 31.3505 22.4412 30.9639 22.2234C30.5827 22.0001 30.1389 21.8885 29.6325 21.8885C29.1044 21.8885 28.6361 22.011 28.2277 22.256C27.8248 22.4956 27.509 22.8196 27.2803 23.228C27.0516 23.6309 26.9345 24.0801 26.9291 24.5756V26.6257C26.9291 27.2464 27.0434 27.7828 27.2721 28.2347C27.5062 28.6867 27.8357 29.0352 28.2604 29.2802C28.6851 29.5252 29.1888 29.6477 29.7714 29.6477C30.158 29.6477 30.5119 29.5933 30.8332 29.4844C31.1544 29.3755 31.4294 29.2121 31.6581 28.9943C31.8868 28.7765 32.0611 28.5097 32.1808 28.1939L35.3989 28.4062C35.2355 29.1795 34.9007 29.8546 34.3943 30.4318C33.8933 31.0036 33.2454 31.45 32.4504 31.7713C31.6608 32.0871 30.7488 32.245 29.7142 32.245Z" fill="#F2859A"/>
</svg>
