<svg width="77" height="75" viewBox="0 0 77 75" fill="none" xmlns="http://www.w3.org/2000/svg">
<path d="M52.7811 16.1656C54.4931 15.8368 58.9331 16.7826 60.4518 18.6336C61.9705 20.4846 61.8987 23.5156 61.1421 23.8218C60.3855 24.1281 57.1052 23.9389 54.841 22.9571C52.5768 21.9753 51.9362 16.3503 52.7811 16.1656Z" fill="#263238"/>
<path d="M52.7756 16.1752C52.7204 16.1752 52.7094 16.0897 52.7756 16.0852C54.2833 16.0356 55.9013 16.4319 57.3427 16.7517C58.5374 16.956 59.6663 17.3626 60.6561 17.9452C61.1126 18.2426 61.4843 18.6173 61.7455 19.0434C62.0068 19.4696 62.1514 19.9369 62.1693 20.4132C62.2848 21.5656 62.0337 22.7228 61.4403 23.7729C61.4403 23.7999 61.3575 23.7729 61.3685 23.7729C62.0257 21.7192 62.5835 19.2152 60.0652 17.8551C57.917 16.6796 55.2055 16.576 52.7756 16.1752Z" fill="#263238"/>
<path d="M60.9101 23.2904C62.4177 23.43 66.3718 25.7179 67.0676 28.0418C67.7634 30.3657 65.5103 33.8425 64.7813 34.0992C64.0523 34.3559 60.6837 32.1626 59.5681 30.5368C58.8226 29.4469 59.3693 28.1634 59.6786 26.8843C60.0983 25.0018 60.6505 23.2724 60.9101 23.2904Z" fill="#263238"/>
<path d="M58.6348 30.2537C58.1433 27.8848 59.7393 25.5114 60.7002 23.3541C60.7002 23.3316 60.7554 23.3541 60.7499 23.3541C60.2418 25.4213 58.7563 27.2903 58.7508 29.4431C58.7162 30.0745 58.8688 30.7034 59.1957 31.2765C59.5225 31.8496 60.014 32.35 60.6284 32.7353C61.7605 33.4018 63.1742 33.6945 64.4941 34.0548C64.5824 34.0773 64.5272 34.1809 64.4389 34.1584C61.8213 33.5099 59.1374 32.7037 58.6348 30.2537Z" fill="#263238"/>
<path d="M61.2136 23.5066C61.1998 23.5001 61.1893 23.4897 61.1842 23.4773C61.179 23.465 61.1795 23.4515 61.1856 23.4395C61.1916 23.4274 61.2029 23.4175 61.2171 23.4117C61.2314 23.4058 61.2478 23.4043 61.2633 23.4076C63.4171 24.2092 66.0126 25.3802 67.1889 27.1321C68.4645 29.0326 67.2607 31.0503 66.1893 32.7932C66.1893 32.7932 66.1341 32.7932 66.1451 32.7932C67.1999 31.0278 68.3099 28.839 66.8686 26.9925C65.626 25.3847 63.2459 24.2903 61.2136 23.5066Z" fill="#263238"/>
<path d="M64.5772 34.0406C63.8975 34.4916 63.3378 35.0509 62.9323 35.6843C62.5268 36.3178 62.2841 37.012 62.2191 37.7246C61.9982 40.571 60.6342 40.1251 56.9784 41.179C53.8858 42.0797 53.571 45.0206 55.4376 46.3086C55.4376 46.3086 54.2392 44.6062 56.266 43.5569C58.6848 42.3004 64.7981 44.0072 67.3439 40.8232C70.6353 36.7068 64.5772 34.0406 64.5772 34.0406Z" fill="#263238"/>
<path d="M65.2009 34.3337C65.2009 34.3337 65.1568 34.3337 65.2009 34.3608C66.5815 35.2615 68.0284 36.1622 68.5751 37.6124C69.1605 39.1662 68.3542 40.837 66.946 41.9224C65.3666 43.1339 63.4669 42.7736 61.5175 42.6295C60.1189 42.4495 58.6868 42.5786 57.3702 43.0033C57.3315 43.0033 57.3702 43.0753 57.4033 43.0618C59.5405 42.4674 61.6058 42.8322 63.7872 42.9402C64.5996 42.9944 65.4143 42.8609 66.138 42.555C66.8617 42.2492 67.4651 41.7834 67.8793 41.2108C70.0386 38.5537 68.161 35.883 65.2009 34.3337Z" fill="#263238"/>
<path d="M54.0732 14.8644C54.1759 14.7741 54.3164 14.7186 54.467 14.7088C54.6175 14.6991 54.767 14.7358 54.8859 14.8118C55.0047 14.8877 55.0842 14.9974 55.1086 15.1189C55.133 15.2404 55.1005 15.365 55.0175 15.4679C54.5481 15.9723 53.6038 15.3688 54.0732 14.8644Z" fill="#F8F8F8"/>
<path d="M53.626 15.6977C53.7287 15.6074 53.8692 15.5519 54.0198 15.5422C54.1703 15.5324 54.3198 15.5692 54.4387 15.6451C54.5575 15.7211 54.637 15.8307 54.6614 15.9522C54.6858 16.0738 54.6533 16.1984 54.5704 16.3012C54.1009 16.8012 53.1787 16.2022 53.626 15.6977Z" fill="#F8F8F8"/>
<path d="M53.0018 16.4634C53.1045 16.3731 53.245 16.3176 53.3956 16.3078C53.5461 16.2981 53.6956 16.3348 53.8145 16.4108C53.9333 16.4867 54.0128 16.5964 54.0372 16.7179C54.0616 16.8394 54.0291 16.964 53.9462 17.0669C53.8435 17.1572 53.7029 17.2127 53.5524 17.2224C53.4019 17.2322 53.2524 17.1954 53.1335 17.1195C53.0146 17.0435 52.9351 16.9339 52.9107 16.8124C52.8863 16.6908 52.9189 16.5663 53.0018 16.4634Z" fill="#F8F8F8"/>
<path d="M52.2783 17.1345C52.381 17.0442 52.5215 16.9887 52.672 16.979C52.8226 16.9692 52.9721 17.006 53.0909 17.0819C53.2098 17.1579 53.2893 17.2675 53.3137 17.389C53.3381 17.5105 53.3056 17.6351 53.2226 17.738C52.7532 18.2424 51.8089 17.6389 52.2783 17.1345Z" fill="#F8F8F8"/>
<path d="M51.4056 17.7019C51.875 17.1975 52.8194 17.801 52.3499 18.3054C52.2473 18.3957 52.1067 18.4512 51.9562 18.461C51.8057 18.4707 51.6562 18.4339 51.5373 18.358C51.4184 18.282 51.3389 18.1724 51.3145 18.0509C51.2902 17.9294 51.3227 17.8048 51.4056 17.7019Z" fill="#F8F8F8"/>
<path d="M50.4564 18.1517C50.5591 18.0614 50.6996 18.0059 50.8501 17.9962C51.0007 17.9864 51.1502 18.0232 51.269 18.0991C51.3879 18.1751 51.4674 18.2847 51.4918 18.4062C51.5162 18.5278 51.4837 18.6523 51.4007 18.7552C50.9313 19.2326 49.9925 18.6291 50.4564 18.1517Z" fill="#F8F8F8"/>
<path d="M49.5559 27.2046C46.9658 29.8077 33.0991 38.0134 21.3915 37.8512C17.4154 37.8017 6.37057 23.9619 4.32727 18.7017C2.86383 14.9231 12.6992 13.0135 15.4825 13.5585C18.9506 14.243 25.7101 26.1102 27.0465 26.1687C31.0226 26.3939 37.8483 24.4438 46.2258 23.7503C50.5388 23.4125 51.555 25.205 49.5559 27.2046Z" fill="#FFCCB3"/>
<path d="M4.7195 19.5707C3.97949 18.2557 0.505885 10.9462 0.224242 9.06821C-0.0574013 7.19018 -0.383208 1.72274 1.36188 1.41198C3.10696 1.10123 3.35546 2.68652 3.35546 2.68652C3.35546 2.68652 3.66471 0.358126 5.4595 0.164468C7.25428 -0.0291892 7.54697 2.46134 7.54697 2.46134C7.54697 2.46134 8.09922 0.0924093 9.88296 0.00233612C11.6667 -0.0877371 11.4679 2.45683 11.4679 2.45683C11.4679 2.45683 11.8268 0.272559 13.351 0.709414C15.19 1.23634 13.964 5.21307 14.4555 7.25773C14.5715 7.7081 17.5922 16.5983 17.5922 16.5983L4.7195 19.5707Z" fill="#FFCCB3"/>
<path d="M11.479 2.22701C10.5899 5.14087 10.8163 6.54602 11.9539 9.3563C11.9539 9.41034 11.8822 9.45088 11.8545 9.39233C10.4298 6.72616 9.83334 5.00126 11.3023 2.18647C11.3796 2.04686 11.5232 2.08739 11.479 2.22701Z" fill="#263238"/>
<path d="M7.61858 2.21798C7.02216 5.31199 7.2541 6.83424 8.17082 9.85169C8.17082 9.89222 8.09903 9.91473 8.08246 9.8742C6.86753 6.97835 6.32082 5.24444 7.41978 2.21798C7.47501 2.07836 7.64619 2.07386 7.61858 2.21798Z" fill="#263238"/>
<path d="M3.41067 2.83959C3.09589 5.87506 3.26156 7.55042 4.62008 10.3832C4.62416 10.3963 4.62255 10.4102 4.61551 10.4225C4.60847 10.4347 4.59644 10.4446 4.58147 10.4505C4.56649 10.4563 4.5495 10.4577 4.53339 10.4545C4.51727 10.4513 4.50301 10.4436 4.49306 10.4328C2.76454 7.65399 2.53813 5.5598 3.2947 2.84409C3.34993 2.64143 3.43276 2.63242 3.41067 2.83959Z" fill="#263238"/>
<path d="M20.044 17.9584C20.044 17.9584 20.5576 14.2158 20.3367 12.5315C20.1158 10.8471 16.471 4.8122 14.8143 5.37966C12.6937 6.11376 13.9583 9.93736 14.8806 11.7433C14.8806 11.7433 9.97115 13.4412 10.1534 16.3461C10.3356 19.2509 20.044 17.9584 20.044 17.9584Z" fill="#FFCCB3"/>
<path d="M14.3283 5.7403C12.9864 7.54177 14.3836 9.85214 15.118 11.6581C15.1305 11.6846 15.135 11.7131 15.131 11.7413C15.127 11.7694 15.1147 11.7964 15.0952 11.8199C15.0756 11.8433 15.0494 11.8626 15.0188 11.876C14.9882 11.8894 14.954 11.8965 14.9192 11.8968C12.9201 12.721 10.3909 14.3558 10.0595 16.2654C10.0559 16.2744 10.0488 16.2822 10.0394 16.2878C10.03 16.2933 10.0187 16.2963 10.0071 16.2963C9.99542 16.2963 9.98408 16.2933 9.97466 16.2878C9.96524 16.2822 9.95822 16.2744 9.95459 16.2654C9.95459 14.1757 12.2906 12.4057 14.5492 11.6176C13.765 9.77558 12.4894 7.41116 14.3118 5.73129C14.3173 5.71778 14.3394 5.72679 14.3283 5.7403Z" fill="#263238"/>
<path d="M32.9834 25.2681L37.81 34.3655C37.81 34.3655 45.1106 31.5326 49.5506 27.8712C53.9907 24.2097 49.0536 22.9802 44.7572 23.5116C40.4608 24.0431 32.9834 25.2681 32.9834 25.2681Z" fill="#5DBD6D"/>
<path d="M49.5504 27.8893C45.1325 31.5507 37.8098 34.3836 37.8098 34.3836L36.3408 31.6138L51.047 24.6602C51.5882 25.3897 51.29 26.4526 49.5504 27.8893Z" fill="#C7C7C7"/>
<path d="M39.6323 33.1046C38.0483 30.5688 36.6559 27.9563 35.4629 25.2818C35.4629 25.2502 35.5126 25.2277 35.5292 25.2818C35.855 25.9843 38.1523 29.8575 39.7041 33.1001C39.7262 33.1227 39.6544 33.1407 39.6323 33.1046Z" fill="#263238"/>
<path d="M38.4889 43.2646L36.5063 55.5956H68.1553C68.1553 55.5956 63.9693 32.4693 57.2099 25.358C53.8302 21.8047 49.3018 21.8992 46.0988 24.6149C45.3974 25.2049 38.3287 33.4421 37.0807 36.8424C35.9928 39.8553 38.4889 43.2646 38.4889 43.2646Z" fill="#5DBD6D"/>
<path d="M47.7005 25.8577L45.7014 30.2307C45.0423 31.6899 44.4091 33.1536 43.8016 34.6218C43.2494 36.099 42.5591 37.5762 42.8297 39.0804C43.0673 40.5965 43.6777 42.0579 44.6245 43.3769L44.6687 43.44V43.503C44.3925 45.4621 44.0667 47.4212 43.774 49.3578C43.4813 51.2944 43.1445 53.2715 42.8021 55.2125C43.0083 53.2429 43.2273 51.2778 43.4593 49.3172C43.7022 47.3536 43.9231 45.3901 44.1882 43.431L44.2213 43.5526C43.2146 42.19 42.5588 40.6745 42.294 39.0984C42.1792 38.2994 42.2485 37.4898 42.4984 36.7115C42.7413 35.9459 43.0506 35.2028 43.3433 34.4597C43.9563 32.978 44.6797 31.5368 45.4032 30.0956C46.1266 28.6544 46.8942 27.2718 47.7005 25.8577Z" fill="#263238"/>
<path d="M43.2825 31.5551C43.2589 31.6522 43.2818 31.753 43.3465 31.8368C43.4113 31.9205 43.5128 31.9809 43.6304 32.0055C43.6886 32.0124 43.7479 32.0097 43.8048 31.9975C43.8617 31.9852 43.9149 31.9637 43.9613 31.9343C44.0077 31.9049 44.0464 31.868 44.0749 31.8261C44.1035 31.7842 44.1213 31.738 44.1274 31.6902C44.1524 31.593 44.1301 31.4917 44.0651 31.4077C44.0002 31.3236 43.8978 31.2635 43.7795 31.2399C43.7212 31.2323 43.6616 31.2345 43.6044 31.2465C43.5472 31.2585 43.4936 31.2799 43.447 31.3095C43.4004 31.339 43.3618 31.3761 43.3335 31.4184C43.3051 31.4606 43.2878 31.5072 43.2825 31.5551V31.5551Z" fill="#263238"/>
<path d="M41.3659 35.811C41.341 35.9082 41.3633 36.0095 41.4282 36.0936C41.4931 36.1776 41.5955 36.2378 41.7139 36.2614C41.7713 36.2683 41.8299 36.2657 41.8861 36.2537C41.9423 36.2417 41.995 36.2205 42.0409 36.1915C42.0868 36.1625 42.125 36.1262 42.1533 36.0848C42.1816 36.0434 42.1993 35.9977 42.2054 35.9506C42.2303 35.8534 42.208 35.7521 42.1431 35.6681C42.0782 35.584 41.9757 35.5238 41.8574 35.5002C41.8 35.4933 41.7414 35.4959 41.6852 35.5079C41.629 35.5199 41.5763 35.5411 41.5304 35.5701C41.4845 35.5992 41.4463 35.6355 41.418 35.6769C41.3897 35.7183 41.372 35.7639 41.3659 35.811V35.811Z" fill="#263238"/>
<path d="M41.1233 40.1526C41.0983 40.2498 41.1206 40.3511 41.1855 40.4351C41.2504 40.5192 41.3529 40.5793 41.4712 40.6029C41.5289 40.6099 41.5879 40.6073 41.6444 40.5954C41.7009 40.5834 41.754 40.5623 41.8003 40.5333C41.8467 40.5043 41.8854 40.4681 41.9142 40.4266C41.9431 40.3852 41.9614 40.3395 41.9682 40.2922C41.9918 40.1951 41.9688 40.0943 41.9041 40.0105C41.8394 39.9268 41.7379 39.8664 41.6203 39.8418C41.5625 39.8349 41.5036 39.8375 41.447 39.8494C41.3905 39.8614 41.3375 39.8825 41.2912 39.9114C41.2448 39.9404 41.2061 39.9767 41.1772 40.0181C41.1484 40.0595 41.13 40.1053 41.1233 40.1526V40.1526Z" fill="#263238"/>
<path d="M42.6032 43.751C42.5783 43.8482 42.6006 43.9495 42.6655 44.0335C42.7304 44.1176 42.8329 44.1777 42.9512 44.2013C43.0089 44.2083 43.0678 44.2057 43.1244 44.1937C43.1809 44.1818 43.2339 44.1607 43.2803 44.1317C43.3266 44.1027 43.3654 44.0665 43.3942 44.025C43.423 43.9836 43.4414 43.9379 43.4482 43.8906C43.4717 43.7935 43.4488 43.6927 43.3841 43.6089C43.3194 43.5252 43.2178 43.4648 43.1003 43.4402C43.0425 43.4333 42.9836 43.4358 42.927 43.4478C42.8705 43.4598 42.8175 43.4809 42.7711 43.5098C42.7248 43.5388 42.686 43.5751 42.6572 43.6165C42.6284 43.6579 42.61 43.7037 42.6032 43.751V43.751Z" fill="#263238"/>
<path d="M42.0291 47.6738C42.0055 47.7709 42.0284 47.8717 42.0931 47.9555C42.1578 48.0392 42.2594 48.0996 42.377 48.1242C42.4349 48.1311 42.4939 48.1284 42.5504 48.1161C42.607 48.1038 42.6599 48.0823 42.7058 48.0528C42.7518 48.0233 42.79 47.9864 42.8179 47.9445C42.8459 47.9026 42.8631 47.8565 42.8685 47.809C42.892 47.7118 42.8691 47.6111 42.8044 47.5273C42.7397 47.4436 42.6381 47.3832 42.5206 47.3586C42.4627 47.3517 42.4036 47.3544 42.3471 47.3667C42.2906 47.379 42.2377 47.4005 42.1917 47.43C42.1457 47.4595 42.1076 47.4964 42.0796 47.5383C42.0516 47.5802 42.0344 47.6263 42.0291 47.6738Z" fill="#263238"/>
<path d="M41.5042 51.5465C41.4806 51.6436 41.5035 51.7444 41.5682 51.8281C41.6329 51.9119 41.7345 51.9722 41.8521 51.9968C41.9103 52.0038 41.9696 52.001 42.0265 51.9888C42.0833 51.9766 42.1366 51.9551 42.183 51.9256C42.2294 51.8962 42.2681 51.8594 42.2966 51.8174C42.3252 51.7755 42.343 51.7293 42.3491 51.6816C42.3739 51.5837 42.3508 51.4819 42.2848 51.3977C42.2187 51.3136 42.115 51.2538 41.9957 51.2312C41.9376 51.2236 41.8783 51.2259 41.8215 51.2379C41.7646 51.2499 41.7114 51.2714 41.6652 51.301C41.619 51.3306 41.5809 51.3677 41.5532 51.41C41.5254 51.4522 41.5087 51.4987 41.5042 51.5465V51.5465Z" fill="#263238"/>
<path d="M49.1313 66.8561C50.7272 67.7569 53.4111 63.8477 54.3223 63.0145C55.2335 62.1813 55.6312 62.2084 55.5759 62.8434L57.6523 56.1239C56.5755 56.804 54.2947 58.2677 53.0798 59.2314C51.4507 60.5195 47.5353 65.9734 49.1313 66.8561Z" fill="#FFCCB3"/>
<path d="M59.8057 26.3579C66.5651 30.8031 75.0862 38.6214 76.8257 43.6745C78.1622 47.5747 71.4359 61.1262 69.4312 64.2878C68.5587 65.6659 56.9837 61.473 56.4756 59.8652C55.9676 58.2574 64.0358 46.5884 64.1131 45.3499C64.1904 44.1114 58.9165 35.9327 55.3215 30.4022C50.9311 23.7008 54.0292 22.5794 59.8057 26.3579Z" fill="#FFCCB3"/>
<path d="M50.2689 70.716C51.3347 71.6617 53.494 70.5133 53.494 70.5133C53.494 70.5133 51.5722 72.4499 53.0743 73.2155C54.5764 73.9811 56.6252 72.3148 56.6252 72.3148C56.6252 72.3148 54.9685 74.1703 56.5424 74.8278C58.1162 75.4853 60.1264 74.0487 60.1264 74.0487C60.1264 74.0487 60.0159 74.7602 61.38 74.8233C63.3349 74.9134 66.1237 72.3283 67.1896 70.6979C68.2554 69.0676 70.6742 62.4517 71.0276 61.4339L58.2433 55.7683C58.2433 55.7683 58.0168 55.9034 57.6523 56.1376L55.5704 62.8436C55.5373 63.2624 54.0738 65.843 53.5437 66.5861C52.3508 68.257 49.0705 69.6531 50.2689 70.716Z" fill="#FFCCB3"/>
<path d="M53.5604 70.4005C56.4265 68.6305 57.3046 67.4551 58.5306 64.7529C58.5306 64.6988 58.6576 64.7169 58.6355 64.7754C57.7133 67.5091 56.8739 69.1169 53.6377 70.5221C53.4997 70.6076 53.4224 70.5041 53.5604 70.4005Z" fill="#263238"/>
<path d="M56.4818 72.3554C59.243 70.3017 60.226 69.0317 61.7889 66.28C61.7889 66.2394 61.8938 66.28 61.8717 66.307C60.6236 69.1128 59.74 70.698 56.6309 72.45C56.4929 72.531 56.3548 72.4455 56.4818 72.3554Z" fill="#263238"/>
<path d="M60.1376 74.0034C62.6503 71.8596 63.7824 70.4995 64.8758 67.6712C64.8802 67.6569 64.8914 67.6446 64.9069 67.637C64.9225 67.6294 64.9411 67.6271 64.9586 67.6307C64.9762 67.6343 64.9913 67.6434 65.0007 67.6561C65.01 67.6687 65.0127 67.6839 65.0083 67.6982C64.2352 70.6707 62.838 72.373 60.2259 74.0574C60.0437 74.1655 59.9885 74.1295 60.1376 74.0034Z" fill="#263238"/>
<path d="M58.5081 38.5222L68.2662 32.5639C68.2662 32.5639 63.1966 27.4297 57.8012 24.7545C52.4058 22.0794 52.0745 26.2948 53.7312 29.5825C55.3879 32.8701 58.5081 38.5222 58.5081 38.5222Z" fill="#5DBD6D"/>
<path d="M66.3167 31.4334C63.6571 33.2763 60.8632 34.9864 57.9502 36.5541C57.9171 36.5541 57.8785 36.5271 57.9116 36.5045C58.6792 36.0812 62.7658 33.352 66.278 31.3794C66.3167 31.3568 66.3554 31.4064 66.3167 31.4334Z" fill="#263238"/>
<path d="M56.7903 35.1534C56.1994 34.068 55.3876 32.4872 54.7138 31.4288C54.7138 31.4288 54.6752 31.4288 54.6807 31.4288C54.9458 32.0458 55.233 32.6628 55.5588 33.2708C55.5369 33.2383 55.5129 33.2067 55.487 33.1762C55.244 32.8925 54.99 32.6133 54.7194 32.3431C54.9237 32.6493 55.1446 32.9511 55.3821 33.2438C55.5312 33.4285 55.6913 33.6041 55.8515 33.7797C56.0227 34.0995 56.4037 34.8921 56.586 35.2119C56.8731 35.7478 58.2758 38.7653 58.3366 38.7293C58.6788 38.546 59.0071 38.346 59.3195 38.1303C59.3692 38.0987 59.3195 38.0267 59.2477 38.0582C59.071 38.1798 58.6292 38.4185 58.5574 38.4635C58.2427 37.9186 58.0052 37.3421 57.6904 36.7837C57.3757 36.2252 57.094 35.7163 56.7903 35.1534Z" fill="#263238"/>
<path d="M52.6869 23.6601C52.5212 24.1104 49.6109 27.0108 47.0209 26.8126C46.176 26.7406 46.4411 22.9665 46.4411 22.9665L46.3803 22.6873L45.563 18.733L51.3836 16.0309L52.223 15.6796C52.223 15.6796 52.3556 16.7739 52.5102 18.1341C52.5102 18.1971 52.5102 18.2602 52.5102 18.3277C52.5102 18.3953 52.5102 18.4763 52.5378 18.5484C52.5654 18.7556 52.5875 18.9627 52.6096 19.1699C52.6317 19.3771 52.6427 19.4807 52.6538 19.6473C52.6648 19.8139 52.6538 19.9761 52.6924 20.1427C52.7876 21.3139 52.7857 22.489 52.6869 23.6601V23.6601Z" fill="#FFCCB3"/>
<path d="M52.5102 18.1208C51.9514 19.1933 51.1139 20.1542 50.0557 20.9371C48.9974 21.7201 47.7434 22.3065 46.3803 22.656L45.563 18.7018L51.3836 15.9996L52.223 15.6483C52.223 15.6483 52.3556 16.7607 52.5102 18.1208Z" fill="#263238"/>
<path d="M39.4941 11.7615C37.738 18.6476 42.6033 20.2824 44.4201 20.5887C46.0769 20.8634 51.7484 21.6425 54.3605 14.9366C56.9726 8.23063 53.6039 5.39333 49.8597 4.57817C46.1155 3.76301 41.2447 4.87091 39.4941 11.7615Z" fill="#FFCCB3"/>
<path d="M42.3439 10.1356C42.5426 10.1446 42.7417 10.1446 42.9403 10.1356C43.1506 10.1512 43.3614 10.1117 43.5423 10.023C43.5915 9.98509 43.6242 9.93502 43.6351 9.88051C43.6461 9.826 43.6348 9.77005 43.603 9.72127C43.5219 9.63219 43.4131 9.56231 43.288 9.51879C43.1628 9.47526 43.0257 9.45965 42.8906 9.47357C42.6127 9.4683 42.3425 9.54871 42.1341 9.69875C42.0956 9.73536 42.0701 9.77981 42.0602 9.82734C42.0504 9.87487 42.0565 9.9237 42.0781 9.96859C42.0997 10.0135 42.1358 10.0527 42.1826 10.0821C42.2295 10.1116 42.2852 10.1301 42.3439 10.1356Z" fill="#263238"/>
<path d="M48.1478 11.1937C47.9545 11.1441 47.7833 11.0766 47.5955 11.0135C47.3899 10.9711 47.2062 10.8765 47.0709 10.7433C47.0388 10.6942 47.0279 10.6378 47.0399 10.5831C47.0519 10.5283 47.0862 10.4785 47.1372 10.4415C47.2492 10.3799 47.3793 10.3436 47.5142 10.3365C47.6491 10.3294 47.7839 10.3516 47.9048 10.401C48.1693 10.4702 48.3921 10.6182 48.5288 10.8153C48.556 10.8617 48.5664 10.9134 48.5588 10.9645C48.5512 11.0155 48.5259 11.0637 48.4859 11.1034C48.4459 11.1431 48.3928 11.1727 48.3329 11.1887C48.273 11.2047 48.2088 11.2064 48.1478 11.1937V11.1937Z" fill="#263238"/>
<path d="M46.6567 12.6846C46.6567 12.6846 46.6953 12.7116 46.6898 12.7296C46.5573 13.18 46.5075 13.7519 46.9935 13.9906C46.9935 13.9906 46.9935 14.0222 46.9935 14.0177C46.364 13.842 46.4413 13.1079 46.6567 12.6846Z" fill="#263238"/>
<path d="M47.2862 12.2972C48.2251 12.3827 47.9379 13.914 47.0709 13.8284C46.2039 13.7428 46.4965 12.1981 47.2862 12.2972Z" fill="#263238"/>
<path d="M47.656 12.4013C47.7996 12.5049 47.9321 12.6805 48.1309 12.7211C48.3297 12.7616 48.5561 12.6265 48.7329 12.4914C48.7329 12.4914 48.766 12.4914 48.7605 12.5139C48.7108 12.8066 48.5175 13.0904 48.1254 13.0859C47.7333 13.0814 47.5731 12.7931 47.529 12.4869C47.5069 12.4283 47.5787 12.3563 47.656 12.4013Z" fill="#263238"/>
<path d="M43.1057 12.0224C43.1057 11.9999 43.056 12.0224 43.056 12.0585C42.9897 12.5088 42.813 13.0718 42.2607 13.1664V13.1934C42.9179 13.1979 43.1388 12.4818 43.1057 12.0224Z" fill="#263238"/>
<path d="M42.686 11.4642C41.7638 11.2975 41.4159 12.8153 42.2719 12.9729C43.1278 13.1305 43.4481 11.6038 42.686 11.4642Z" fill="#263238"/>
<path d="M42.2665 11.5046C42.1008 11.5632 41.9186 11.6893 41.7418 11.6713C41.5651 11.6532 41.4215 11.4641 41.3277 11.2885C41.3277 11.2885 41.3001 11.2885 41.2945 11.2885C41.2172 11.5812 41.2669 11.9009 41.5983 12.009C41.9296 12.1171 42.1836 11.8919 42.3327 11.6127C42.3603 11.5722 42.3327 11.4821 42.2665 11.5046Z" fill="#263238"/>
<path d="M43.2381 14.2564C43.2381 14.2564 42.973 14.9454 42.9067 15.2787C42.9067 15.3102 42.9951 15.3373 43.1331 15.3643C43.473 15.4641 43.8401 15.4853 44.1938 15.4257C44.5475 15.3661 44.8742 15.228 45.1378 15.0265C45.1709 14.9995 45.1378 14.959 45.0881 14.9725C44.5091 15.1931 43.8581 15.2548 43.2325 15.1481C43.2325 15.0535 43.7295 13.9817 43.6633 13.9681C43.3419 13.9484 43.0188 13.9635 42.7024 14.0132C43.1994 12.563 43.9725 11.1894 44.4419 9.73922C44.4471 9.72787 44.4465 9.71532 44.4402 9.70434C44.434 9.69336 44.4227 9.68485 44.4088 9.68067C44.3949 9.67649 44.3795 9.67698 44.3661 9.68205C44.3526 9.68712 44.3421 9.69634 44.337 9.70769C43.4498 11.1581 42.7431 12.6775 42.2275 14.2429C42.1943 14.4275 43.0834 14.2879 43.2381 14.2564Z" fill="#263238"/>
<path d="M45.9222 5.46564C45.669 6.04436 45.6325 6.67141 45.8173 7.2671C46.5463 8.89292 48.8933 8.66323 49.6057 9.33878C50.3181 10.0143 49.8763 11.1402 50.4727 11.7753C51.3066 12.6445 52.5988 12.4328 52.6817 12.9822C52.7645 13.5317 53.0075 15.2791 53.8248 15.5628C54.6421 15.8466 59.8221 4.75406 48.7994 4.26766C48.7994 4.26766 47.3525 3.65066 44.9006 4.42529C42.2001 5.28549 40.6704 8.65873 40.6704 8.65873C40.6704 8.65873 40.7312 8.61369 41.1398 8.375C41.6921 8.03272 41.9571 7.69945 42.3768 7.47426C43.034 7.13649 43.3488 7.30763 44.0336 6.97887C44.7713 6.57286 45.4114 6.05997 45.9222 5.46564V5.46564Z" fill="#263238"/>
<path d="M46.1486 4.98364C45.9208 5.41615 45.7595 5.86996 45.6682 6.33474C45.5406 6.7823 45.5674 7.24991 45.7455 7.68584C45.9859 8.09208 46.4004 8.41248 46.9107 8.58657C47.4132 8.78473 48.0152 8.8748 48.5288 9.09999C48.8069 9.21705 49.0415 9.39279 49.208 9.6089C49.348 9.83161 49.4307 10.0753 49.451 10.325C49.4594 10.7793 49.6198 11.2231 49.9149 11.6085C50.0814 11.7894 50.294 11.9386 50.5381 12.0459C50.7822 12.1532 51.0519 12.216 51.3286 12.23C51.905 12.1976 52.4833 12.2667 53.024 12.4327C52.4715 12.3039 51.8919 12.2716 51.3231 12.3381C51.0214 12.3329 50.7246 12.2747 50.453 12.1674C50.1814 12.0602 49.9413 11.9064 49.7492 11.7166C49.4104 11.3186 49.2187 10.8497 49.197 10.3655C49.173 10.1444 49.098 9.92897 48.9761 9.7305C48.8284 9.55046 48.6244 9.40586 48.3852 9.31166C47.9047 9.09999 47.3249 8.9964 46.7947 8.78473C46.5232 8.67836 46.272 8.5403 46.0492 8.3749C45.8189 8.21005 45.6424 8.00113 45.5356 7.76691C45.3729 7.29874 45.3729 6.80291 45.5356 6.33474C45.672 5.86576 45.8778 5.41206 46.1486 4.98364V4.98364Z" fill="#263238"/>
<path d="M45.8894 5.37488C45.7299 5.79505 45.5034 6.1963 45.2156 6.56835C44.9263 6.95996 44.5018 7.27328 43.9952 7.46908C43.7415 7.54962 43.4789 7.60994 43.211 7.64922C42.972 7.69327 42.7524 7.78984 42.5759 7.92845C42.4121 8.10651 42.2271 8.27094 42.0237 8.41935C41.8072 8.55746 41.5536 8.65162 41.2837 8.69407C41.5271 8.61353 41.7472 8.49234 41.9298 8.33829C42.1049 8.17742 42.262 8.00408 42.3992 7.82036C42.5852 7.63683 42.839 7.50729 43.1227 7.45107C43.3774 7.40754 43.6268 7.34575 43.8682 7.26641C44.3293 7.08427 44.7249 6.80815 45.0168 6.46476C45.3384 6.11844 45.6299 5.75426 45.8894 5.37488V5.37488Z" fill="#263238"/>
<path d="M52.102 14.5855C52.102 14.5855 54.3717 12.6445 55.4762 13.3335C56.5807 14.0226 54.5981 16.9995 53.1015 17.2562C52.9118 17.2994 52.7134 17.3108 52.5181 17.2899C52.3229 17.269 52.1348 17.2162 51.9651 17.1347C51.7955 17.0531 51.6478 16.9444 51.5309 16.8152C51.4139 16.6859 51.3302 16.5388 51.2847 16.3825L52.102 14.5855Z" fill="#FFCCB3"/>
<path d="M54.8795 14.1754C54.8795 14.1754 54.8795 14.2024 54.8795 14.2069C53.8192 14.414 53.1565 15.1076 52.6705 15.8327C52.7433 15.7588 52.8349 15.6988 52.9389 15.6567C53.043 15.6146 53.157 15.5914 53.2731 15.5889C53.3892 15.5863 53.5046 15.6044 53.6113 15.6418C53.718 15.6792 53.8135 15.7352 53.891 15.8057C53.9186 15.8057 53.891 15.8507 53.8579 15.8417C53.6916 15.7744 53.5037 15.7513 53.3204 15.7755C53.1372 15.7998 52.9679 15.8701 52.8362 15.9768C52.6129 16.1532 52.4146 16.3496 52.2453 16.5623C52.1846 16.6298 52.0355 16.5623 52.0852 16.4902C52.2453 15.4499 53.4989 14.0988 54.8795 14.1754Z" fill="#263238"/>
<path d="M46.3749 23.2634L47.5954 26.47L52.7202 22.8671L53.9351 24.2182C53.9351 24.2182 48.6888 30.154 48.6833 29.8703L47.38 27.0915L44.9336 28.8029L45.5797 24.1416L46.3749 23.2634Z" fill="#5DBD6D"/>
<path d="M45.0939 26.4661C45.232 25.7005 45.3425 24.9259 45.5247 24.1648C45.5247 24.1377 45.5854 24.1287 45.591 24.1648C45.7069 24.9214 45.1547 27.8532 45.0884 28.5603C45.1933 28.4883 47.3526 27.0606 47.3692 27.0876C47.6674 27.538 48.6283 29.5601 48.689 29.7448C49.5174 28.799 52.6817 25.3807 53.6592 24.498C53.6868 24.4755 53.7365 24.498 53.7144 24.5296C52.9634 25.5339 48.7443 30.1456 48.7111 30.1276C48.1972 29.1668 47.7437 28.1852 47.3526 27.1867C46.9771 27.5065 44.7792 29.1323 44.7847 29.0152C44.8322 28.1616 44.9354 27.3107 45.0939 26.4661V26.4661Z" fill="#263238"/>
</svg>
