<svg width="159" height="14" viewBox="0 0 159 14" fill="none" xmlns="http://www.w3.org/2000/svg">
<path d="M4.45739 13H0.0745739V0.636363H4.49361C5.73722 0.636363 6.80777 0.883878 7.70526 1.37891C8.60275 1.86991 9.29297 2.57623 9.77592 3.49787C10.2629 4.41951 10.5064 5.52225 10.5064 6.80611C10.5064 8.09399 10.2629 9.20076 9.77592 10.1264C9.29297 11.0521 8.59872 11.7624 7.69318 12.2575C6.79167 12.7525 5.71307 13 4.45739 13ZM2.68857 10.7603H4.34872C5.12145 10.7603 5.77143 10.6235 6.29865 10.3498C6.8299 10.0721 7.22834 9.64347 7.49396 9.06392C7.76361 8.48035 7.89844 7.72775 7.89844 6.80611C7.89844 5.89252 7.76361 5.14595 7.49396 4.56641C7.22834 3.98686 6.83191 3.56025 6.30469 3.28658C5.77746 3.0129 5.12749 2.87607 4.35476 2.87607H2.68857V10.7603ZM15.8217 0.636363V13H13.2077V0.636363H15.8217ZM18.7374 13V0.636363H27.0684V2.79155H21.3514V5.73757H26.6397V7.89276H21.3514V10.8448H27.0925V13H18.7374ZM29.4407 2.79155V0.636363H39.5948V2.79155H35.8096V13H33.2258V2.79155H29.4407ZM52.8291 6.81818C52.8291 8.16643 52.5735 9.31345 52.0624 10.2592C51.5553 11.205 50.8631 11.9274 49.9857 12.4265C49.1124 12.9215 48.1303 13.169 47.0397 13.169C45.9409 13.169 44.9549 12.9195 44.0816 12.4205C43.2082 11.9214 42.518 11.199 42.0109 10.2532C41.5038 9.30741 41.2503 8.16241 41.2503 6.81818C41.2503 5.46993 41.5038 4.32292 42.0109 3.37713C42.518 2.43134 43.2082 1.71094 44.0816 1.21591C44.9549 0.716856 45.9409 0.467329 47.0397 0.467329C48.1303 0.467329 49.1124 0.716856 49.9857 1.21591C50.8631 1.71094 51.5553 2.43134 52.0624 3.37713C52.5735 4.32292 52.8291 5.46993 52.8291 6.81818ZM50.1789 6.81818C50.1789 5.94484 50.0481 5.20833 49.7865 4.60866C49.5289 4.009 49.1647 3.55421 48.6938 3.24432C48.2229 2.93442 47.6715 2.77947 47.0397 2.77947C46.4078 2.77947 45.8564 2.93442 45.3856 3.24432C44.9147 3.55421 44.5484 4.009 44.2868 4.60866C44.0293 5.20833 43.9005 5.94484 43.9005 6.81818C43.9005 7.69152 44.0293 8.42803 44.2868 9.0277C44.5484 9.62737 44.9147 10.0821 45.3856 10.392C45.8564 10.7019 46.4078 10.8569 47.0397 10.8569C47.6715 10.8569 48.2229 10.7019 48.6938 10.392C49.1647 10.0821 49.5289 9.62737 49.7865 9.0277C50.0481 8.42803 50.1789 7.69152 50.1789 6.81818ZM55.5304 13V0.636363H58.1444V10.8448H63.4449V13H55.5304ZM76.821 6.81818C76.821 8.16643 76.5654 9.31345 76.0543 10.2592C75.5472 11.205 74.855 11.9274 73.9776 12.4265C73.1043 12.9215 72.1223 13.169 71.0316 13.169C69.9329 13.169 68.9468 12.9195 68.0735 12.4205C67.2001 11.9214 66.5099 11.199 66.0028 10.2532C65.4957 9.30741 65.2422 8.16241 65.2422 6.81818C65.2422 5.46993 65.4957 4.32292 66.0028 3.37713C66.5099 2.43134 67.2001 1.71094 68.0735 1.21591C68.9468 0.716856 69.9329 0.467329 71.0316 0.467329C72.1223 0.467329 73.1043 0.716856 73.9776 1.21591C74.855 1.71094 75.5472 2.43134 76.0543 3.37713C76.5654 4.32292 76.821 5.46993 76.821 6.81818ZM74.1708 6.81818C74.1708 5.94484 74.04 5.20833 73.7784 4.60866C73.5208 4.009 73.1566 3.55421 72.6857 3.24432C72.2148 2.93442 71.6634 2.77947 71.0316 2.77947C70.3997 2.77947 69.8483 2.93442 69.3775 3.24432C68.9066 3.55421 68.5403 4.009 68.2787 4.60866C68.0212 5.20833 67.8924 5.94484 67.8924 6.81818C67.8924 7.69152 68.0212 8.42803 68.2787 9.0277C68.5403 9.62737 68.9066 10.0821 69.3775 10.392C69.8483 10.7019 70.3997 10.8569 71.0316 10.8569C71.6634 10.8569 72.2148 10.7019 72.6857 10.392C73.1566 10.0821 73.5208 9.62737 73.7784 9.0277C74.04 8.42803 74.1708 7.69152 74.1708 6.81818ZM87.7205 4.63281C87.636 4.33901 87.5173 4.07943 87.3643 3.85405C87.2114 3.62464 87.0242 3.43146 86.8029 3.2745C86.5856 3.11352 86.336 2.99077 86.0543 2.90625C85.7766 2.82173 85.4687 2.77947 85.1307 2.77947C84.4988 2.77947 83.9434 2.93643 83.4645 3.25035C82.9896 3.56428 82.6193 4.02107 82.3537 4.62074C82.088 5.21638 81.9552 5.94484 81.9552 6.80611C81.9552 7.66738 82.086 8.39986 82.3476 9.00355C82.6092 9.60724 82.9795 10.0681 83.4584 10.386C83.9374 10.6999 84.5028 10.8569 85.1548 10.8569C85.7464 10.8569 86.2515 10.7522 86.6701 10.543C87.0927 10.3297 87.4146 10.0298 87.636 9.64347C87.8614 9.2571 87.9741 8.80031 87.9741 8.27308L88.5053 8.35156H85.3178V6.38352H90.4915V7.94105C90.4915 9.0277 90.2621 9.96141 89.8032 10.7422C89.3444 11.5189 88.7126 12.1186 87.9076 12.5412C87.1027 12.9598 86.1811 13.169 85.1427 13.169C83.9836 13.169 82.9654 12.9135 82.088 12.4023C81.2107 11.8872 80.5265 11.1567 80.0355 10.2109C79.5485 9.26113 79.305 8.13423 79.305 6.83026C79.305 5.82812 79.4499 4.93466 79.7397 4.14986C80.0335 3.36103 80.444 2.69294 80.9712 2.1456C81.4984 1.59825 82.1122 1.1817 82.8125 0.895951C83.5128 0.610203 84.2714 0.467329 85.0884 0.467329C85.7887 0.467329 86.4407 0.569957 87.0444 0.775213C87.6481 0.976444 88.1833 1.26219 88.6502 1.63246C89.1211 2.00272 89.5054 2.44342 89.8032 2.95454C90.1011 3.46165 90.2922 4.02107 90.3768 4.63281H87.7205ZM104.581 6.81818C104.581 8.16643 104.326 9.31345 103.815 10.2592C103.308 11.205 102.615 11.9274 101.738 12.4265C100.865 12.9215 99.8827 13.169 98.7921 13.169C97.6933 13.169 96.7073 12.9195 95.834 12.4205C94.9606 11.9214 94.2704 11.199 93.7633 10.2532C93.2562 9.30741 93.0026 8.16241 93.0026 6.81818C93.0026 5.46993 93.2562 4.32292 93.7633 3.37713C94.2704 2.43134 94.9606 1.71094 95.834 1.21591C96.7073 0.716856 97.6933 0.467329 98.7921 0.467329C99.8827 0.467329 100.865 0.716856 101.738 1.21591C102.615 1.71094 103.308 2.43134 103.815 3.37713C104.326 4.32292 104.581 5.46993 104.581 6.81818ZM101.931 6.81818C101.931 5.94484 101.8 5.20833 101.539 4.60866C101.281 4.009 100.917 3.55421 100.446 3.24432C99.9753 2.93442 99.4239 2.77947 98.7921 2.77947C98.1602 2.77947 97.6088 2.93442 97.1379 3.24432C96.6671 3.55421 96.3008 4.009 96.0392 4.60866C95.7816 5.20833 95.6529 5.94484 95.6529 6.81818C95.6529 7.69152 95.7816 8.42803 96.0392 9.0277C96.3008 9.62737 96.6671 10.0821 97.1379 10.392C97.6088 10.7019 98.1602 10.8569 98.7921 10.8569C99.4239 10.8569 99.9753 10.7019 100.446 10.392C100.917 10.0821 101.281 9.62737 101.539 9.0277C101.8 8.42803 101.931 7.69152 101.931 6.81818ZM117.624 0.636363V13H115.366L109.987 5.21839H109.897V13H107.283V0.636363H109.577L114.914 8.41193H115.022V0.636363H117.624ZM120.549 13V0.636363H123.163V10.8448H128.463V13H120.549ZM133.573 0.636363V13H130.959V0.636363H133.573ZM146.83 0.636363V13H144.572L139.193 5.21839H139.103V13H136.489V0.636363H138.783L144.12 8.41193H144.228V0.636363H146.83ZM149.755 13V0.636363H158.086V2.79155H152.369V5.73757H157.657V7.89276H152.369V10.8448H158.11V13H149.755Z" fill="#5DBD6D"/>
</svg>
