<svg width="48" height="47" viewBox="0 0 48 47" fill="none" xmlns="http://www.w3.org/2000/svg">
<rect x="0.890625" width="46.8312" height="47" rx="10" fill="#FBF2E3"/>
<path d="M8.34446 15.2727H12.706L17.3125 26.5114H17.5085L22.1151 15.2727H26.4766V32H23.0462V21.1126H22.9073L18.5785 31.9183H16.2425L11.9137 21.0717H11.7749V32H8.34446V15.2727ZM34.977 36.9659C33.8499 36.9659 32.8834 36.8107 32.0775 36.5004C31.2771 36.1954 30.64 35.7789 30.1663 35.2507C29.6926 34.7225 29.3849 34.129 29.2433 33.4702L32.4614 33.0373C32.5594 33.2878 32.7146 33.5219 32.9269 33.7397C33.1393 33.9575 33.4197 34.1317 33.7682 34.2624C34.1221 34.3986 34.5523 34.4666 35.0587 34.4666C35.8155 34.4666 36.439 34.2815 36.9291 33.9112C37.4246 33.5464 37.6723 32.9338 37.6723 32.0735V29.7784H37.5253C37.3728 30.1269 37.1441 30.4563 36.8392 30.7667C36.5343 31.0771 36.1423 31.3303 35.6631 31.5263C35.1839 31.7223 34.6122 31.8203 33.9479 31.8203C33.0059 31.8203 32.1483 31.6025 31.3751 31.1669C30.6073 30.7259 29.9948 30.0534 29.5374 29.1495C29.0854 28.2402 28.8595 27.0913 28.8595 25.7028C28.8595 24.2816 29.0909 23.0946 29.5537 22.1417C30.0165 21.1888 30.6318 20.4755 31.3996 20.0018C32.1728 19.5281 33.0195 19.2912 33.9397 19.2912C34.6421 19.2912 35.2302 19.411 35.7039 19.6506C36.1776 19.8847 36.5588 20.1787 36.8474 20.5327C37.1414 20.8812 37.3674 21.2242 37.5253 21.5618H37.656V19.4545H41.1109V32.1225C41.1109 33.1897 40.8495 34.0827 40.3268 34.8015C39.8041 35.5202 39.0799 36.0593 38.1542 36.4187C37.234 36.7835 36.1749 36.9659 34.977 36.9659ZM35.0505 29.2067C35.6114 29.2067 36.0851 29.0678 36.4717 28.7901C36.8637 28.507 37.1632 28.104 37.3701 27.5813C37.5825 27.0531 37.6887 26.4215 37.6887 25.6864C37.6887 24.9513 37.5852 24.3143 37.3783 23.7752C37.1714 23.2307 36.8719 22.8087 36.4798 22.5092C36.0878 22.2098 35.6114 22.06 35.0505 22.06C34.4788 22.06 33.9969 22.2152 33.6048 22.5256C33.2128 22.8305 32.916 23.2552 32.7146 23.7997C32.5131 24.3442 32.4124 24.9731 32.4124 25.6864C32.4124 26.4106 32.5131 27.0368 32.7146 27.565C32.9215 28.0877 33.2182 28.4934 33.6048 28.782C33.9969 29.0651 34.4788 29.2067 35.0505 29.2067Z" fill="#EFB65D"/>
</svg>
