<svg width="47" height="47" viewBox="0 0 47 47" fill="none" xmlns="http://www.w3.org/2000/svg">
<rect x="0.0751953" width="46.8312" height="47" rx="10" fill="#E6F9E6"/>
<path d="M24.4587 32H18.529V15.2727H24.5077C26.1903 15.2727 27.6386 15.6076 28.8529 16.2773C30.0671 16.9416 31.001 17.8973 31.6544 19.1442C32.3132 20.3911 32.6427 21.883 32.6427 23.62C32.6427 25.3625 32.3132 26.8598 31.6544 28.1122C31.001 29.3646 30.0617 30.3256 28.8366 30.9954C27.6169 31.6651 26.1576 32 24.4587 32ZM22.0656 28.9698H24.3117C25.3572 28.9698 26.2365 28.7847 26.9498 28.4144C27.6686 28.0387 28.2077 27.4588 28.567 26.6747C28.9318 25.8852 29.1143 24.867 29.1143 23.62C29.1143 22.384 28.9318 21.3739 28.567 20.5898C28.2077 19.8058 27.6713 19.2286 26.958 18.8583C26.2447 18.488 25.3653 18.3029 24.3199 18.3029H22.0656V28.9698Z" fill="#5DBD6D"/>
</svg>
